<?xml version="1.0" ?><svg xmlns="http://www.w3.org/2000/svg" xmlns:xlink="http://www.w3.org/1999/xlink" version="1.1" id="Layer_1" viewBox="0 0 32 32" style="enable-background:new 0 0 32 32;" xml:space="preserve"><style type="text/css">
	.st0{fill:none;stroke:#000000;stroke-linecap:round;stroke-linejoin:round;stroke-miterlimit:10;}
</style><g><line class="st0" x1="21.6" y1="16" x2="26.2" y2="16"/><path class="st0" d="M16,31L16,31C7.7,31,1,24.3,1,16l0,0C1,7.7,7.7,1,16,1l0,0c8.3,0,15,6.7,15,15l0,0C31,24.3,24.3,31,16,31z"/><g><line class="st0" x1="16" y1="3.2" x2="16" y2="3.8"/><line class="st0" x1="28.8" y1="16" x2="28.2" y2="16"/><line class="st0" x1="16" y1="28.8" x2="16" y2="28.2"/><line class="st0" x1="3.2" y1="16" x2="3.8" y2="16"/></g><g><line class="st0" x1="25.1" y1="6.9" x2="24.6" y2="7.4"/><line class="st0" x1="25.1" y1="25.1" x2="24.6" y2="24.6"/><line class="st0" x1="6.9" y1="25.1" x2="7.4" y2="24.6"/><line class="st0" x1="6.9" y1="6.9" x2="7.4" y2="7.4"/></g><g><g><path class="st0" d="M17.5,14h-1.2h-0.8c-0.6,0-1,0.5-1,1l0,0c0,0.6,0.5,1,1,1h1"/><path class="st0" d="M16.5,16c0.6,0,1,0.5,1,1l0,0c0,0.6-0.5,1-1,1h-2"/></g><line class="st0" x1="16.3" y1="12.8" x2="16.3" y2="14"/><line class="st0" x1="16.3" y1="18" x2="16.3" y2="19.2"/><path class="st0" d="M21.6,16c0,1.4-0.5,2.7-1.4,3.7c-1,1.2-2.5,1.9-4.2,1.9c-3.1,0-5.6-2.5-5.6-5.6c0-1.7,0.7-3.2,1.9-4.2    c1-0.9,2.3-1.4,3.7-1.4C19.1,10.4,21.6,12.9,21.6,16z"/></g><line class="st0" x1="16" y1="5.9" x2="16" y2="10.4"/></g></svg>