<?xml version="1.0" ?><svg xmlns:inkscape="http://www.inkscape.org/namespaces/inkscape" xmlns:sodipodi="http://sodipodi.sourceforge.net/DTD/sodipodi-0.dtd" xmlns="http://www.w3.org/2000/svg" xmlns:svg="http://www.w3.org/2000/svg" width="32" height="32" viewBox="0 0 8.4666662 8.4666666" version="1.1" id="svg1066"><defs id="defs1063"/><g id="layer1"><path style="fill:#cccccc;fill-opacity:1;stroke-width:0.999998" d="m 4.2506837,0.98697937 c 0.048189,4.065e-4 0.097041,0.00711 0.1495294,0.0191 0.1391228,0.031862 0.141471,0.062626 0.00861,0.1127762 -0.1601703,0.060452 -0.1219337,0.1037582 0.077494,0.087787 0.099357,-0.00792 0.219404,0.00284 0.2667171,0.023531 0.3108781,0.1371115 0.405376,0.2818836 0.4443905,0.6806563 C 5.2288318,2.231976 5.1513547,2.5701704 5.0216438,2.6782161 4.7174939,2.9315461 4.2866908,2.9520774 3.910043,2.731349 3.693533,2.6044706 3.6138756,2.5188948 3.4872859,2.2773018 3.394692,2.1005703 3.3771106,2.0302671 3.379549,1.8471957 3.38456,1.4689545 3.5385213,1.2445197 3.9104628,1.0735062 4.0418567,1.0130784 4.1446692,0.98569517 4.2506849,0.98697957 Z" id="path1891"/><path id="path348" style="fill:#000000;stroke-width:0.999998" d="M 4.009182,0.7937684 C 3.8788818,0.79458121 3.7447968,0.84003713 3.5742442,0.92670609 3.1531489,1.1406965 3.0358043,1.2823596 2.9185821,1.7182448 c -0.027436,0.1020228 -0.050444,0.208699 -0.051663,0.2371064 -0.00418,0.1162144 0.096841,0.4065349 0.199303,0.572708 0.1059438,0.1718181 0.3734668,0.4250668 0.4490086,0.4250668 0.020482,0 0.037173,0.013614 0.037173,0.030236 0,0.048642 0.4262156,0.1417607 0.6487314,0.1417607 0.1615199,0 0.2467052,-0.022067 0.405746,-0.1054285 C 4.8592595,2.8873744 4.9631472,2.7888629 5.088022,2.5635461 5.1755445,2.4056269 5.1864774,2.3521811 5.1852583,2.0929056 5.1831044,1.6783159 5.1208783,1.4595016 4.9538232,1.2782631 4.8784042,1.1964425 4.7972777,1.1295733 4.7734219,1.1295733 c -0.023856,0 -0.1186263,-0.051036 -0.2106436,-0.1131948 C 4.3381106,0.86461218 4.176711,0.7925654 4.0091833,0.79376432 Z m -0.015541,0.19321097 c 0.00661,-1.462e-4 0.013326,-8.12e-5 0.01995,0 0.048189,4.065e-4 0.097041,0.00711 0.1495295,0.0191 0.1391223,0.031862 0.1414697,0.062626 0.00861,0.1127762 -0.1601699,0.060452 -0.1219333,0.1037582 0.077495,0.087787 0.099357,-0.00792 0.2194039,0.00284 0.2667172,0.023531 C 4.8268193,1.3672851 4.9213176,1.5120572 4.960332,1.9108299 4.9917396,2.231976 4.9142625,2.5701704 4.7845516,2.6782161 4.4804021,2.9315461 4.0495982,2.9520774 3.6729509,2.731349 3.4564408,2.6044747 3.3767835,2.5188948 3.2501937,2.2773018 3.1576002,2.1005703 3.1400185,2.0302671 3.1424569,1.8471957 3.1474678,1.4689545 3.3014295,1.2445197 3.6733707,1.0735062 3.7965524,1.016854 3.8945109,0.98914967 3.9936411,0.98697937 Z"/><path style="fill:#cccccc;stroke-width:0.999998" d="m 4.2350832,4.0188916 c 0.066442,4.064e-4 0.1337989,0.00979 0.2061707,0.026335 0.1918215,0.043927 0.1950593,0.086348 0.011875,0.1554931 -0.2208414,0.083353 -0.1681211,0.1430613 0.1068501,0.1210425 0.1369928,-0.010933 0.3025133,0.00407 0.3677488,0.032431 0.4286341,0.1890495 0.5589274,0.3886573 0.6127207,0.938485 C 5.5837512,5.7354717 5.4769263,6.2017759 5.2980816,6.3507462 4.8787207,6.7000351 4.2847311,6.728345 3.7654107,6.4240078 3.4668878,6.2490685 3.3570564,6.1310741 3.182515,5.7979677 3.054847,5.5542898 3.0306061,5.4573551 3.0339678,5.2049396 3.0408766,4.6834218 3.253158,4.373972 3.7659899,4.1381783 3.9471552,4.0548621 4.0889122,4.0171075 4.2350864,4.0188753 Z" id="path1894"/><path style="fill:#000000;stroke-width:0.999998" d="m 2.4123592,5.0376732 c 0.016419,-0.01016 0.037754,-0.088758 0.047456,-0.1747035 0.032024,-0.2840742 0.2122342,-0.4769154 0.6443358,-0.6894792 0.4699577,-0.2311852 0.6139171,-0.270411 0.8917814,-0.242983 0.4333532,0.042786 0.967632,0.281083 1.058995,0.4723434 0.1376804,0.2882031 0.1401961,0.422169 0.00756,0.4021538 C 5.0097192,4.7970392 4.9707494,4.7436504 4.921965,4.6124643 4.8610334,4.4486116 4.8354586,4.4214437 4.6593448,4.3335067 4.4604279,4.2341783 4.0753104,4.1345817 3.866778,4.1285385 3.7448416,4.1248809 3.224933,4.3091633 3.1879587,4.3689855 3.1760512,4.3882489 3.1022244,4.4318069 3.0238826,4.4658104 2.7574259,4.5814518 2.6589835,4.7706639 2.6055174,5.2699231 c -0.019548,0.1825064 -0.00992,0.2452994 0.067117,0.4377302 0.054429,0.1359654 0.1547574,0.2955387 0.2541386,0.4042062 0.1500269,0.1640518 0.1848514,0.1839206 0.4035153,0.2302422 0.2783683,0.058969 0.5186284,0.066618 0.5489986,0.017475 0.030724,-0.049723 0.075639,-0.042274 0.098105,0.016256 0.010688,0.02788 -0.021337,0.099145 -0.071173,0.1583784 -0.088306,0.104953 -0.096378,0.107237 -0.3168382,0.089713 C 3.3154914,6.6021413 3.0622468,6.5468058 2.934641,6.4808185 2.7540244,6.3874155 2.5200879,6.053354 2.4352518,5.7676868 2.3788189,5.5776538 2.3628433,5.0682549 2.4123713,5.0376528 Z" id="path334"/><path id="path462" style="fill:#000000;stroke-width:1" d="m 4.9563205,4.9851191 c -0.036983,-3.82e-4 -0.073808,0.016656 -0.1073935,0.052711 -0.034501,0.037018 -0.062777,0.082352 -0.062777,0.10088 0,0.018528 -0.013428,0.03377 -0.030008,0.03377 -0.01658,0 -0.039587,0.029377 -0.050933,0.06515 -0.03858,0.1215741 -0.1834035,0.165579 -0.4424054,0.1346353 -0.2239168,-0.026741 -0.2359275,-0.024602 -0.3075715,0.052707 -0.041009,0.044268 -0.074623,0.089813 -0.074623,0.1012735 0,0.011461 0.054719,0.071136 0.1216073,0.1326641 0.1683867,0.1549091 0.2988851,0.3326094 0.2988851,0.4068698 0,0.034307 -0.041556,0.1130401 -0.092192,0.1749084 -0.1808712,0.2209828 -0.2047989,0.3167666 -0.1046299,0.4169403 0.051278,0.05127 0.083082,0.057027 0.1853722,0.033961 0.067927,-0.015321 0.1285241,-0.0427 0.1346364,-0.061002 0.0061,-0.018302 0.082951,-0.042792 0.1709608,-0.054483 0.088006,-0.011692 0.1679249,-0.033926 0.1774753,-0.049353 0.039738,-0.0643 0.2387297,-0.027203 0.343896,0.064159 0.1435096,0.124664 0.2296104,0.1664226 0.3427112,0.1664226 0.080671,0 0.098099,-0.015398 0.1152898,-0.1012731 0.011155,-0.055674 0.0034,-0.1926107 -0.017176,-0.3044125 -0.032869,-0.1782848 -0.030818,-0.2098246 0.016186,-0.2568364 0.029492,-0.029493 0.0535,-0.067204 0.0535,-0.083704 0,-0.016505 0.020912,-0.030029 0.046392,-0.030029 0.07161,0 0.1847327,-0.1824411 0.204521,-0.3298779 C 5.9028339,5.4663764 5.8329027,5.4141008 5.6557562,5.4849769 5.4991933,5.5476244 5.3856776,5.521498 5.3144271,5.4064069 5.2843125,5.3577719 5.2442202,5.30359 5.2251957,5.2857879 5.2061596,5.2679858 5.1626154,5.1983435 5.1284628,5.1312112 5.0801255,5.0362181 5.0179586,4.9860512 4.9563174,4.9851229 Z m -0.00317,0.2791458 c 0.02919,-7.611e-4 0.050015,0.020247 0.089034,0.073042 0.037121,0.050236 0.067713,0.1193965 0.067713,0.1535873 0,0.060428 0.1532595,0.1991508 0.2659168,0.2406497 0.030696,0.011308 0.10858,-0.00153 0.172935,-0.028422 0.1762573,-0.073646 0.1911534,-0.043768 0.061397,0.1227886 -0.064706,0.083051 -0.1359781,0.1439834 -0.1583262,0.1354258 -0.086948,-0.03335 -0.125233,0.07799 -0.1026557,0.2982933 0.011843,0.1170352 0.010269,0.2077118 -0.00374,0.2015609 C 5.3314117,6.4550593 5.2227718,6.4013723 5.1039827,6.3417557 4.9059516,6.2423579 4.8783575,6.2364064 4.7721292,6.2714721 c -0.063717,0.021008 -0.1338766,0.055421 -0.1559573,0.076202 -0.05417,0.051051 -0.3150733,0.191789 -0.3150733,0.1699759 0,-0.03671 0.1711889,-0.3768703 0.1980067,-0.3934499 0.050621,-0.03129 0.029997,-0.1418632 -0.049551,-0.2649274 -0.042953,-0.066346 -0.118368,-0.16297 -0.1676065,-0.2145885 l -0.089626,-0.093969 0.078768,0.018948 c 0.2911756,0.070139 0.3139341,0.067587 0.4171364,-0.045403 0.054147,-0.059282 0.1057141,-0.12986 0.1145005,-0.1569452 0.00878,-0.027085 0.05103,-0.065455 0.093969,-0.085282 0.023628,-0.010926 0.04117,-0.017344 0.056461,-0.017764 z"/></g></svg>